<svg width="487" height="428" viewBox="0 0 487 428" fill="none" xmlns="http://www.w3.org/2000/svg">
<g id="ContactImage">
<path id="Vector" d="M85.3463 46.2098C52.2851 58.4012 30.397 87.6506 30.6407 121.051C30.6467 121.881 30.6648 122.712 30.6949 123.544C31.4201 143.521 40.5638 164.708 59.0307 175.837C74.5367 185.182 93.8696 186.132 110.882 192.671C144.277 205.507 164.332 237.881 176.17 269.392C188.008 300.904 194.675 334.463 213.889 362.952C245.56 409.91 310.586 435.171 367.697 424.834C424.809 414.498 470.904 370.585 483.102 318.038C495.3 265.492 474.374 206.771 432.013 167.48C416.452 153.047 397.319 140.711 375.867 137.701C357.252 135.09 338.525 139.686 319.855 137.639C290.501 134.419 265.444 115.427 244.53 95.4517C223.615 75.4763 204.19 53.1959 178.041 39.6528C152.649 26.5026 114.633 35.4102 85.3463 46.2098Z" fill="url(#paint0_linear_135_1631)"/>
<path id="Leap" d="M288.034 356.664L286.935 341.37C279.737 337.769 271.77 335.981 263.725 336.161C275.043 344.916 274.136 362.415 281.975 374.39C284.448 378.106 287.726 381.218 291.564 383.494C295.402 385.771 299.703 387.154 304.148 387.54L313.568 392.963C314.645 385.837 314.166 378.561 312.163 371.637C310.16 364.713 306.681 358.306 301.966 352.858C299.29 349.827 296.244 347.146 292.899 344.877C290.84 350.793 288.034 356.664 288.034 356.664Z" fill="#599636"/>
<g id="Map">
<path id="Vector_2" d="M95.9089 229.177L93.1281 224.611L93.1281 224.614L93.1281 228.262C83.9511 214.427 78.1707 198.606 76.2714 182.092L76.2696 182.076L76.2674 182.06C76.1907 181.499 76.1306 180.923 76.078 180.336L76.0773 180.328L76.0765 180.321C75.7324 176.874 75.5586 173.375 75.5554 169.825L75.5554 169.824C75.5285 146.523 83.211 123.869 97.4035 105.398L97.4077 105.393L97.9771 104.652C98.2422 104.311 98.5096 103.973 98.7819 103.64L98.788 103.633L98.794 103.625C108.179 91.8422 119.968 82.1988 133.373 75.3392C146.779 68.4796 161.494 64.5617 176.533 63.8473L176.541 63.8469C177.209 63.8117 177.876 63.7853 178.544 63.7677L178.544 63.7677C179.557 63.7411 180.565 63.7234 181.578 63.7234L181.579 63.7234C196.19 63.7156 210.645 66.7396 224.029 72.6045C237.414 78.4694 249.438 87.0478 259.343 97.7981L259.349 97.8049L259.356 97.8117C259.955 98.4465 260.533 99.0942 261.111 99.7528L261.116 99.7591C262.236 101.021 263.318 102.309 264.361 103.623L264.368 103.632L264.374 103.64C264.843 104.213 265.296 104.798 265.749 105.393L265.752 105.397C280.683 124.876 288.384 148.943 287.538 173.479C286.692 198.015 277.351 221.493 261.113 239.896L261.111 239.899C260.533 240.558 259.955 241.205 259.356 241.84L259.35 241.846L259.344 241.853C219.674 284.846 152.688 287.516 109.727 247.816C104.467 242.956 99.7132 237.574 95.5388 231.754H97.9345L96.0103 229.323C95.9782 229.282 95.9484 229.24 95.9209 229.196C95.9169 229.19 95.913 229.184 95.9092 229.177C95.9091 229.177 95.909 229.177 95.9089 229.177Z" fill="url(#paint1_linear_135_1631)" stroke="#0E1F26" stroke-width="3"/>
<g id="Vector_3">
<mask id="path-4-inside-1_135_1631" fill="white">
<path d="M93.8756 228.855L94.1801 228.236L116.993 182.263V182.254L117.88 180.47V180.461L155.567 104.484V104.475L156.454 102.691L156.463 102.682L175.548 64.1872L176.462 62.349C177.143 62.3132 177.824 62.2863 178.505 62.2683L177.6 64.0976L158.461 102.682V102.691L157.574 104.475V104.484L118.901 182.442L118.893 182.451L96.0798 228.46L95.1838 230.254L95.0403 230.55L94.1355 232.37C93.7409 231.814 93.3467 231.258 92.9617 230.693L93.8756 228.855Z"/>
</mask>
<path d="M93.8756 228.855L94.1801 228.236L116.993 182.263V182.254L117.88 180.47V180.461L155.567 104.484V104.475L156.454 102.691L156.463 102.682L175.548 64.1872L176.462 62.349C177.143 62.3132 177.824 62.2863 178.505 62.2683L177.6 64.0976L158.461 102.682V102.691L157.574 104.475V104.484L118.901 182.442L118.893 182.451L96.0798 228.46L95.1838 230.254L95.0403 230.55L94.1355 232.37C93.7409 231.814 93.3467 231.258 92.9617 230.693L93.8756 228.855Z" fill="#0E1F26"/>
<path d="M93.8756 228.855L96.5619 230.19L96.5673 230.18L93.8756 228.855ZM94.1801 228.236L91.4928 226.903L91.4885 226.911L94.1801 228.236ZM116.993 182.263L119.68 183.596L119.993 182.966V182.263H116.993ZM116.993 182.254L114.307 180.918L113.993 181.549V182.254H116.993ZM117.88 180.47L120.566 181.805L120.88 181.174V180.47H117.88ZM117.88 180.461L115.193 179.128L114.88 179.757V180.461H117.88ZM155.567 104.484L158.254 105.817L158.567 105.188V104.484H155.567ZM155.567 104.475L152.88 103.14L152.567 103.771V104.475H155.567ZM156.454 102.691L154.306 100.597L153.977 100.934L153.768 101.355L156.454 102.691ZM156.463 102.682L158.611 104.776L158.941 104.438L159.15 104.015L156.463 102.682ZM175.548 64.1872L172.862 62.8516L172.86 62.8546L175.548 64.1872ZM176.462 62.349L176.304 59.3532L174.556 59.4452L173.776 61.0134L176.462 62.349ZM178.505 62.2683L181.194 63.5984L183.4 59.1382L178.426 59.2694L178.505 62.2683ZM177.6 64.0976L180.288 65.4306L180.289 65.4276L177.6 64.0976ZM158.461 102.682L155.774 101.349L155.461 101.979V102.682H158.461ZM158.461 102.691L161.147 104.027L161.461 103.396V102.691H158.461ZM157.574 104.475L154.888 103.14L154.574 103.771V104.475H157.574ZM157.574 104.484L160.261 105.818L160.574 105.188V104.484H157.574ZM118.901 182.442L121.048 184.538L121.378 184.2L121.589 183.776L118.901 182.442ZM118.893 182.451L116.746 180.355L116.415 180.694L116.205 181.119L118.893 182.451ZM96.0798 228.46L98.7635 229.801L98.7675 229.793L96.0798 228.46ZM95.1838 230.254L92.5001 228.913L92.4922 228.929L92.4846 228.944L95.1838 230.254ZM95.0403 230.55L97.7267 231.885L97.7332 231.872L97.7395 231.859L95.0403 230.55ZM94.1355 232.37L91.6892 234.106L94.5907 238.194L96.8219 233.705L94.1355 232.37ZM92.9617 230.693L90.2754 229.357L89.4932 230.931L90.4826 232.383L92.9617 230.693ZM96.5673 230.18L96.8718 229.561L91.4885 226.911L91.1839 227.53L96.5673 230.18ZM96.8675 229.57L119.68 183.596L114.306 180.929L91.4928 226.903L96.8675 229.57ZM119.993 182.263V182.254H113.993V182.263H119.993ZM119.679 183.59L120.566 181.805L115.194 179.134L114.307 180.918L119.679 183.59ZM120.88 180.47V180.461H114.88V180.47H120.88ZM120.568 181.794L158.254 105.817L152.879 103.151L115.193 179.128L120.568 181.794ZM158.567 104.484V104.475H152.567V104.484H158.567ZM158.253 105.811L159.14 104.027L153.768 101.355L152.88 103.14L158.253 105.811ZM158.602 104.785L158.611 104.776L154.314 100.588L154.306 100.597L158.602 104.785ZM159.15 104.015L178.236 65.5198L172.86 62.8546L153.775 101.349L159.15 104.015ZM178.234 65.5229L179.148 63.6846L173.776 61.0134L172.862 62.8516L178.234 65.5229ZM176.62 65.3449C177.275 65.3104 177.929 65.2845 178.584 65.2673L178.426 59.2694C177.719 59.288 177.012 59.3159 176.304 59.3532L176.62 65.3449ZM175.816 60.9383L174.911 62.7675L180.289 65.4276L181.194 63.5984L175.816 60.9383ZM174.913 62.7645L155.774 101.349L161.149 104.015L180.288 65.4306L174.913 62.7645ZM155.461 102.682V102.691H161.461V102.682H155.461ZM155.775 101.355L154.888 103.14L160.26 105.811L161.147 104.027L155.775 101.355ZM154.574 104.475V104.484H160.574V104.475H154.574ZM154.886 103.151L116.214 181.109L121.589 183.776L160.261 105.818L154.886 103.151ZM116.755 180.346L116.746 180.355L121.039 184.547L121.048 184.538L116.755 180.346ZM116.205 181.119L93.392 227.128L98.7675 229.793L121.58 183.784L116.205 181.119ZM93.3961 227.119L92.5001 228.913L97.8675 231.595L98.7635 229.801L93.3961 227.119ZM92.4846 228.944L92.341 229.24L97.7395 231.859L97.883 231.563L92.4846 228.944ZM92.3538 229.214L91.4491 231.034L96.8219 233.705L97.7267 231.885L92.3538 229.214ZM96.5818 230.633C96.1853 230.075 95.8072 229.541 95.4407 229.004L90.4826 232.383C90.8861 232.975 91.2964 233.553 91.6892 234.106L96.5818 230.633ZM95.648 232.029L96.5619 230.19L91.1893 227.519L90.2754 229.357L95.648 232.029Z" fill="#0E1F26" mask="url(#path-4-inside-1_135_1631)"/>
</g>
<g id="Vector_4">
<mask id="path-6-inside-2_135_1631" fill="white">
<path d="M118.516 180.469V182.263H74.7813C74.7003 181.671 74.6378 181.07 74.584 180.469H118.516Z"/>
</mask>
<path d="M118.516 180.469V182.263H74.7813C74.7003 181.671 74.6378 181.07 74.584 180.469H118.516Z" fill="#0E1F26"/>
<path d="M118.516 180.469H121.516V177.469H118.516V180.469ZM118.516 182.263V185.263H121.516V182.263H118.516ZM74.7813 182.263L71.809 182.669L72.1636 185.263H74.7813V182.263ZM74.584 180.469V177.469H71.3033L71.5959 180.737L74.584 180.469ZM115.516 180.469V182.263H121.516V180.469H115.516ZM118.516 179.263H74.7813V185.263H118.516V179.263ZM77.7536 181.856C77.6812 181.327 77.6234 180.776 77.572 180.202L71.5959 180.737C71.6521 181.365 71.7195 182.015 71.809 182.669L77.7536 181.856ZM74.584 183.469H118.516V177.469H74.584V183.469Z" fill="#0E1F26" mask="url(#path-6-inside-2_135_1631)"/>
</g>
<g id="Vector_5">
<mask id="path-8-inside-3_135_1631" fill="white">
<path d="M186.483 194.459V192.666H230.218C230.299 193.257 230.361 193.858 230.415 194.459H186.483Z"/>
</mask>
<path d="M186.483 194.459V192.666H230.218C230.299 193.257 230.361 193.858 230.415 194.459H186.483Z" fill="#0E1F26"/>
<path d="M186.483 194.459H183.483V197.459H186.483V194.459ZM186.483 192.666V189.666H183.483V192.666H186.483ZM230.218 192.666L233.19 192.259L232.835 189.666H230.218V192.666ZM230.415 194.459V197.459H233.696L233.403 194.191L230.415 194.459ZM189.483 194.459V192.666H183.483V194.459H189.483ZM186.483 195.666H230.218V189.666H186.483V195.666ZM227.245 193.072C227.318 193.602 227.376 194.152 227.427 194.727L233.403 194.191C233.347 193.564 233.279 192.913 233.19 192.259L227.245 193.072ZM230.415 191.459H186.483V197.459H230.415V191.459Z" fill="#0E1F26" mask="url(#path-8-inside-3_135_1631)"/>
</g>
<g id="Vector_6">
<mask id="path-10-inside-4_135_1631" fill="white">
<path d="M223.064 188.211H224.856V231.978C224.264 232.059 223.664 232.122 223.064 232.176V188.211Z"/>
</mask>
<path d="M223.064 188.211H224.856V231.978C224.264 232.059 223.664 232.122 223.064 232.176V188.211Z" fill="#0E1F26"/>
<path d="M223.064 188.211V185.211H220.064V188.211H223.064ZM224.856 188.211H227.856V185.211H224.856V188.211ZM224.856 231.978L225.263 234.95L227.856 234.595V231.978H224.856ZM223.064 232.176H220.064V235.457L223.332 235.164L223.064 232.176ZM223.064 191.211H224.856V185.211H223.064V191.211ZM221.856 188.211V231.978H227.856V188.211H221.856ZM224.449 229.006C223.92 229.078 223.369 229.136 222.795 229.188L223.332 235.164C223.959 235.107 224.609 235.04 225.263 234.95L224.449 229.006ZM226.064 232.176V188.211H220.064V232.176H226.064Z" fill="#0E1F26" mask="url(#path-10-inside-4_135_1631)"/>
</g>
<g id="Vector_7">
<mask id="path-12-inside-5_135_1631" fill="white">
<path d="M266.943 104.484C266.485 103.884 266.02 103.283 265.536 102.691H262.238V98.7634C261.656 98.0999 261.065 97.4364 260.446 96.7817V102.691H97.6207C97.1368 103.283 96.6713 103.884 96.2141 104.484H260.446V242.87C261.065 242.215 261.656 241.552 262.238 240.888V104.484H266.943Z"/>
</mask>
<path d="M266.943 104.484C266.485 103.884 266.02 103.283 265.536 102.691H262.238V98.7634C261.656 98.0999 261.065 97.4364 260.446 96.7817V102.691H97.6207C97.1368 103.283 96.6713 103.884 96.2141 104.484H260.446V242.87C261.065 242.215 261.656 241.552 262.238 240.888V104.484H266.943Z" fill="#0E1F26"/>
<path d="M266.943 104.484V107.484H272.996L269.33 102.667L266.943 104.484ZM265.536 102.691L267.858 100.792L266.958 99.6909H265.536V102.691ZM262.238 102.691H259.238V105.691H262.238V102.691ZM262.238 98.7634H265.238V97.6336L264.493 96.7845L262.238 98.7634ZM260.446 96.7817L262.627 94.7218L257.446 89.2362V96.7817H260.446ZM260.446 102.691V105.691H263.446V102.691H260.446ZM97.6207 102.691V99.6909H96.1985L95.2982 100.792L97.6207 102.691ZM96.2141 104.484L93.8268 102.668L90.1613 107.484H96.2141V104.484ZM260.446 104.484H263.446V101.484H260.446V104.484ZM260.446 242.87H257.446V250.416L262.627 244.93L260.446 242.87ZM262.238 240.888L264.493 242.867L265.238 242.018V240.888H262.238ZM262.238 104.484V101.484H259.238V104.484H262.238ZM269.33 102.667C268.863 102.054 268.374 101.423 267.858 100.792L263.213 104.59C263.666 105.143 264.107 105.713 264.555 106.301L269.33 102.667ZM265.536 99.6909H262.238V105.691H265.536V99.6909ZM265.238 102.691V98.7634H259.238V102.691H265.238ZM264.493 96.7845C263.902 96.1113 263.283 95.4159 262.627 94.7218L258.265 98.8416C258.846 99.4568 259.41 100.088 259.984 100.742L264.493 96.7845ZM257.446 96.7817V102.691H263.446V96.7817H257.446ZM260.446 99.6909H97.6207V105.691H260.446V99.6909ZM95.2982 100.792C94.7826 101.423 94.2933 102.054 93.8268 102.668L98.6015 106.301C99.0493 105.713 99.491 105.143 99.9432 104.59L95.2982 100.792ZM96.2141 107.484H260.446V101.484H96.2141V107.484ZM257.446 104.484V242.87H263.446V104.484H257.446ZM262.627 244.93C263.283 244.236 263.902 243.54 264.493 242.867L259.984 238.909C259.41 239.563 258.846 240.195 258.265 240.81L262.627 244.93ZM265.238 240.888V104.484H259.238V240.888H265.238ZM262.238 107.484H266.943V101.484H262.238V107.484Z" fill="#0E1F26" mask="url(#path-12-inside-5_135_1631)"/>
</g>
<g id="Vector_8">
<mask id="path-14-inside-6_135_1631" fill="white">
<path d="M261.342 228.459H94.626V230.253H261.342V228.459Z"/>
</mask>
<path d="M261.342 228.459H94.626V230.253H261.342V228.459Z" fill="#0E1F26"/>
<path d="M94.626 228.459V225.459H91.626V228.459H94.626ZM261.342 228.459H264.342V225.459H261.342V228.459ZM261.342 230.253V233.253H264.342V230.253H261.342ZM94.626 230.253H91.626V233.253H94.626V230.253ZM94.626 231.459H261.342V225.459H94.626V231.459ZM258.342 228.459V230.253H264.342V228.459H258.342ZM261.342 227.253H94.626V233.253H261.342V227.253ZM97.626 230.253V228.459H91.626V230.253H97.626Z" fill="#0E1F26" mask="url(#path-14-inside-6_135_1631)"/>
</g>
<g id="Vector_9">
<mask id="path-16-inside-7_135_1631" fill="white">
<path d="M94.6281 229.958V230.254H94.8342C94.7595 230.159 94.6907 230.06 94.6281 229.958ZM96.2141 104.484C81.8197 123.218 74.0281 146.194 74.0554 169.826C74.0587 173.425 74.2348 176.972 74.5839 180.47C74.6378 181.07 74.7003 181.671 74.7813 182.263C76.7813 199.654 83.0247 216.286 92.9616 230.693C93.3466 231.258 93.7408 231.814 94.1354 232.37C98.4131 238.372 103.297 243.917 108.709 248.918C152.279 289.18 220.214 286.472 260.446 242.87C261.064 242.215 261.656 241.552 262.238 240.888C278.706 222.225 288.179 198.414 289.037 173.531C289.895 148.648 282.085 124.24 266.942 104.484C266.485 103.884 266.02 103.283 265.536 102.691C264.475 101.355 263.376 100.046 262.238 98.7634C261.656 98.0999 261.064 97.4363 260.446 96.7817C250.401 85.8789 238.206 77.1787 224.631 71.2306C211.057 65.2824 196.397 62.2155 181.578 62.2234C180.548 62.2234 179.526 62.2413 178.505 62.2682C177.824 62.2861 177.143 62.313 176.462 62.3489C161.209 63.0735 146.286 67.047 132.69 74.0038C119.094 80.9607 107.138 90.7408 97.6206 102.691C97.1367 103.283 96.6712 103.884 96.214 104.484L96.2141 104.484ZM76.5821 182.263C76.5016 181.671 76.439 181.07 76.376 180.47C73.6448 153.235 81.5644 126 98.4721 104.484C98.9468 103.883 99.4219 103.283 99.9146 102.691C109.175 91.3871 120.678 82.1289 133.696 75.5014C146.715 68.8739 160.966 65.0213 175.548 64.1871C176.229 64.1512 176.91 64.1154 177.6 64.0974C178.917 64.0436 180.243 64.0167 181.578 64.0167C196.479 64.0079 211.212 67.16 224.806 73.2652C238.401 79.3704 250.548 88.29 260.446 99.4359C261.064 100.117 261.665 100.799 262.238 101.498C262.588 101.893 262.919 102.287 263.242 102.691C263.735 103.283 264.209 103.883 264.684 104.484C279.75 123.626 287.737 147.393 287.291 171.756C286.845 196.118 277.994 219.576 262.238 238.153C261.665 238.853 261.064 239.534 260.446 240.216C254.99 246.35 248.839 251.827 242.116 256.535C194.332 290.003 128.484 278.369 95.0402 230.549C94.9684 230.451 94.8967 230.352 94.8341 230.254C94.7594 230.159 94.6906 230.06 94.628 229.958C94.3683 229.59 94.1174 229.222 93.8755 228.855C84.4635 214.935 78.5324 198.956 76.582 182.263L76.5821 182.263ZM94.8342 230.254C94.7595 230.159 94.6907 230.06 94.628 229.958V230.254H94.8342Z"/>
</mask>
<path d="M94.6281 229.958L97.1903 228.397L91.6281 219.264V229.958H94.6281ZM94.6281 230.254H91.6281V233.254H94.6281V230.254ZM94.8342 230.254V233.254H101.035L97.1864 228.392L94.8342 230.254ZM96.2141 104.484L98.593 106.312L104.569 98.5348L95.2648 101.638L96.2141 104.484ZM74.0554 169.826L77.0554 169.823L77.0554 169.822L74.0554 169.826ZM74.5839 180.47L77.572 180.202L77.5706 180.187L77.5691 180.172L74.5839 180.47ZM74.7813 182.263L77.7616 181.92L77.7579 181.888L77.7536 181.856L74.7813 182.263ZM92.9616 230.693L95.4406 229.003L95.4359 228.997L95.4311 228.99L92.9616 230.693ZM94.1354 232.37L91.689 234.106L91.6924 234.111L94.1354 232.37ZM108.709 248.918L106.673 251.121L108.709 248.918ZM260.446 242.87L258.265 240.81L258.253 240.823L258.241 240.836L260.446 242.87ZM262.238 240.888L259.989 238.903L259.983 238.909L262.238 240.888ZM266.942 104.484L264.555 106.301L264.561 106.309L266.942 104.484ZM265.536 102.691L263.186 104.556L263.199 104.573L263.213 104.59L265.536 102.691ZM262.238 98.7634L259.983 100.742L259.989 100.748L259.994 100.755L262.238 98.7634ZM260.446 96.7817L258.24 98.8145L258.252 98.8281L258.265 98.8416L260.446 96.7817ZM181.578 62.2234L181.578 65.2234L181.58 65.2234L181.578 62.2234ZM178.505 62.2682L178.584 65.2672L178.584 65.2672L178.505 62.2682ZM176.462 62.3489L176.604 65.3456L176.612 65.3452L176.62 65.3448L176.462 62.3489ZM97.6206 102.691L99.9431 104.59L99.9553 104.575L99.9673 104.56L97.6206 102.691ZM96.214 104.484L93.8267 102.667L87.9359 110.408L97.1633 107.33L96.214 104.484ZM76.5821 182.263L78.247 184.758L79.8075 183.717L79.5547 181.859L76.5821 182.263ZM76.376 180.47L73.3909 180.769L73.3924 180.782L76.376 180.47ZM98.4721 104.484L96.1182 102.624L96.1132 102.631L98.4721 104.484ZM99.9146 102.691L102.22 104.61L102.228 104.601L102.235 104.592L99.9146 102.691ZM175.548 64.1871L175.39 61.1912L175.377 61.192L175.548 64.1871ZM177.6 64.0974L177.678 67.0964L177.7 67.0959L177.722 67.0949L177.6 64.0974ZM181.578 64.0167L181.578 67.0167L181.58 67.0167L181.578 64.0167ZM260.446 99.4359L258.203 101.428L258.214 101.44L258.224 101.452L260.446 99.4359ZM262.238 101.498L259.919 103.401L259.955 103.445L259.993 103.488L262.238 101.498ZM263.242 102.691L260.899 104.565L260.918 104.588L260.936 104.61L263.242 102.691ZM264.684 104.484L267.042 102.629L267.037 102.623L264.684 104.484ZM262.238 238.153L259.95 236.213L259.934 236.232L259.919 236.251L262.238 238.153ZM260.446 240.216L258.224 238.2L258.214 238.211L258.205 238.222L260.446 240.216ZM242.116 256.535L243.837 258.992L243.837 258.992L242.116 256.535ZM95.0402 230.549L97.4986 228.83L97.4824 228.807L97.4658 228.784L95.0402 230.549ZM94.8341 230.254L97.3673 228.646L97.2835 228.514L97.1863 228.392L94.8341 230.254ZM94.628 229.958L97.1902 228.397L97.1371 228.31L97.0782 228.227L94.628 229.958ZM93.8755 228.855L96.3816 227.206L96.3713 227.19L96.3607 227.174L93.8755 228.855ZM76.582 182.263L74.917 179.767L73.3891 180.787L73.6023 182.611L76.582 182.263ZM94.8342 230.254V233.254H101.035L97.1865 228.392L94.8342 230.254ZM94.628 229.958L97.1897 228.396L91.628 219.271V229.958H94.628ZM94.628 230.254H91.628V233.254H94.628V230.254ZM91.6281 229.958V230.254H97.6281V229.958H91.6281ZM94.6281 233.254H94.8342V227.254H94.6281V233.254ZM97.1864 228.392C97.1877 228.393 97.1891 228.395 97.1903 228.397L92.0659 231.518C92.1923 231.726 92.3313 231.925 92.482 232.116L97.1864 228.392ZM93.8352 102.656C79.0372 121.916 71.0273 145.535 71.0554 169.829L77.0554 169.822C77.0289 146.853 84.6022 124.521 98.593 106.312L93.8352 102.656ZM71.0554 169.829C71.0587 173.524 71.2396 177.17 71.5988 180.768L77.5691 180.172C77.23 176.775 77.0586 173.326 77.0554 169.823L71.0554 169.829ZM71.5959 180.737C71.6521 181.365 71.7195 182.015 71.8089 182.669L77.7536 181.856C77.6812 181.327 77.6234 180.776 77.572 180.202L71.5959 180.737ZM71.8009 182.606C73.8571 200.485 80.2759 217.584 90.492 232.396L95.4311 228.99C85.7736 214.987 79.7054 198.823 77.7616 181.92L71.8009 182.606ZM90.4826 232.382C90.886 232.975 91.2963 233.553 91.689 234.106L96.5817 230.633C96.1853 230.075 95.8071 229.541 95.4406 229.003L90.4826 232.382ZM91.6924 234.111C96.0896 240.28 101.109 245.98 106.673 251.121L110.745 246.715C105.484 241.853 100.737 236.463 96.5784 230.629L91.6924 234.111ZM106.673 251.121C151.46 292.509 221.295 289.725 262.651 244.904L258.241 240.836C219.133 283.22 153.097 285.852 110.745 246.715L106.673 251.121ZM262.627 244.93C263.283 244.236 263.902 243.54 264.493 242.867L259.983 238.909C259.41 239.563 258.846 240.195 258.265 240.81L262.627 244.93ZM264.488 242.873C281.415 223.688 291.153 199.212 292.035 173.634L286.039 173.427C285.205 197.616 275.996 220.761 259.989 238.903L264.488 242.873ZM292.035 173.634C292.917 148.056 284.889 122.967 269.323 102.659L264.561 106.309C279.281 125.513 286.873 149.239 286.039 173.427L292.035 173.634ZM269.33 102.668C268.863 102.054 268.374 101.422 267.858 100.792L263.213 104.59C263.665 105.143 264.107 105.713 264.555 106.301L269.33 102.668ZM267.886 100.826C266.791 99.4466 265.656 98.0953 264.482 96.7721L259.994 100.755C261.096 101.996 262.16 103.263 263.186 104.556L267.886 100.826ZM264.493 96.7846C263.902 96.1112 263.283 95.4159 262.627 94.7219L258.265 98.8416C258.846 99.4568 259.41 100.088 259.983 100.742L264.493 96.7846ZM262.653 94.749C252.326 83.5412 239.79 74.5975 225.836 68.4828L223.427 73.9784C236.622 79.76 248.476 88.2166 258.24 98.8145L262.653 94.749ZM225.836 68.4828C211.881 62.3681 196.811 59.2153 181.577 59.2234L181.58 65.2234C195.984 65.2157 210.233 68.1968 223.427 73.9784L225.836 68.4828ZM181.578 59.2234C180.514 59.2234 179.464 59.2419 178.426 59.2693L178.584 65.2672C179.588 65.2408 180.582 65.2234 181.578 65.2234L181.578 59.2234ZM178.426 59.2693C177.718 59.2879 177.011 59.3158 176.304 59.3531L176.62 65.3448C177.274 65.3103 177.929 65.2844 178.584 65.2672L178.426 59.2693ZM176.32 59.3523C160.64 60.0972 145.3 64.1818 131.324 71.3332L134.057 76.6745C147.273 69.9122 161.778 66.0499 176.604 65.3456L176.32 59.3523ZM131.324 71.3332C117.348 78.4845 105.057 88.538 95.274 100.822L99.9673 104.56C109.219 92.9436 120.841 83.4369 134.057 76.6745L131.324 71.3332ZM95.2981 100.792C94.7826 101.422 94.2933 102.054 93.8267 102.667L98.6013 106.301C99.0492 105.713 99.4909 105.143 99.9431 104.59L95.2981 100.792ZM97.1633 107.33L97.1634 107.33L95.2648 101.638L95.2647 101.638L97.1633 107.33ZM79.5547 181.859C79.4815 181.321 79.4237 180.768 79.3596 180.157L73.3924 180.782C73.4543 181.373 73.5216 182.021 73.6094 182.667L79.5547 181.859ZM79.361 180.17C76.7072 153.707 84.4026 127.244 100.831 106.338L96.1132 102.631C78.7263 124.756 70.5824 152.763 73.391 180.769L79.361 180.17ZM100.826 106.344C101.304 105.74 101.756 105.168 102.22 104.61L97.6089 100.771C97.088 101.397 96.5898 102.027 96.1182 102.624L100.826 106.344ZM102.235 104.592C111.233 93.6093 122.409 84.6141 135.057 78.1749L132.335 72.8279C118.947 79.6438 107.117 89.165 97.5939 100.79L102.235 104.592ZM135.057 78.1749C147.706 71.7358 161.552 67.9927 175.719 67.1822L175.377 61.192C160.38 62.0499 145.724 66.0121 132.335 72.8279L135.057 78.1749ZM175.706 67.183C176.393 67.1468 177.034 67.1132 177.678 67.0964L177.522 61.0985C176.786 61.1176 176.065 61.1557 175.39 61.1913L175.706 67.183ZM177.722 67.0949C178.998 67.0428 180.283 67.0167 181.578 67.0167V61.0167C180.203 61.0167 178.836 61.0445 177.477 61.0999L177.722 67.0949ZM181.58 67.0167C196.056 67.0082 210.37 70.0705 223.577 76.0019L226.035 70.5285C212.054 64.2496 196.901 61.0077 181.576 61.0167L181.58 67.0167ZM223.577 76.0019C236.785 81.9333 248.586 90.5991 258.203 101.428L262.689 97.4438C252.509 85.9809 240.017 76.8075 226.035 70.5285L223.577 76.0019ZM258.224 101.452C258.825 102.113 259.388 102.754 259.919 103.401L264.558 99.5959C263.941 98.8434 263.304 98.1215 262.668 97.4202L258.224 101.452ZM259.993 103.488C260.307 103.843 260.606 104.199 260.899 104.565L265.584 100.817C265.232 100.376 264.868 99.9429 264.484 99.5089L259.993 103.488ZM260.936 104.61C261.401 105.168 261.852 105.739 262.331 106.345L267.037 102.623C266.567 102.028 266.068 101.397 265.548 100.772L260.936 104.61ZM262.327 106.34C276.965 124.938 284.725 148.03 284.292 171.701L290.291 171.81C290.749 146.757 282.536 122.315 267.042 102.629L262.327 106.34ZM284.292 171.701C283.859 195.371 275.259 218.164 259.95 236.213L264.526 240.094C280.73 220.989 289.832 196.864 290.291 171.81L284.292 171.701ZM259.919 236.251C259.389 236.897 258.825 237.538 258.224 238.2L262.668 242.231C263.304 241.53 263.941 240.808 264.558 240.056L259.919 236.251ZM258.205 238.222C252.904 244.182 246.927 249.503 240.395 254.078L243.837 258.992C250.751 254.15 257.077 248.518 262.688 242.21L258.205 238.222ZM240.395 254.078C193.969 286.595 129.992 275.292 97.4986 228.83L92.5817 232.269C126.975 281.446 194.694 293.412 243.837 258.992L240.395 254.078ZM97.4658 228.784C97.4279 228.732 97.4057 228.701 97.3867 228.674C97.3687 228.649 97.3643 228.642 97.3673 228.646L92.3009 231.861C92.4236 232.054 92.5532 232.231 92.6145 232.315L97.4658 228.784ZM97.1863 228.392C97.1877 228.393 97.189 228.395 97.1902 228.397L92.0658 231.518C92.1922 231.726 92.3312 231.925 92.4819 232.116L97.1863 228.392ZM97.0782 228.227C96.8371 227.885 96.6049 227.545 96.3816 227.206L91.3694 230.504C91.63 230.9 91.8995 231.295 92.1779 231.689L97.0782 228.227ZM96.3607 227.174C87.2179 213.653 81.4564 198.131 79.5617 181.915L73.6023 182.611C75.6084 199.781 81.7091 216.218 91.3903 230.535L96.3607 227.174ZM78.247 184.759L78.247 184.758L74.9171 179.767L74.917 179.767L78.247 184.759ZM97.1865 228.392C97.1876 228.393 97.1887 228.395 97.1897 228.396L92.0663 231.519C92.1926 231.726 92.3314 231.925 92.4819 232.115L97.1865 228.392ZM91.628 229.958V230.254H97.628V229.958H91.628ZM94.628 233.254H94.8342V227.254H94.628V233.254Z" fill="#0E1F26" mask="url(#path-16-inside-7_135_1631)"/>
</g>
<path id="Vector_10" d="M35.8484 15.3693C52.3169 3.76298 72.7179 -0.820929 92.5635 2.62575C112.409 6.07244 130.074 17.2675 141.672 33.7485C153.823 51.0155 166.101 82.4875 173.155 116.345C179.999 149.191 181.859 183.973 174.12 209.951C148.151 183.356 115.71 168.489 86.5384 156.698C82.2861 154.979 78.1095 153.328 74.0337 151.717C63.7671 147.658 54.14 143.852 45.5525 139.853C33.5552 134.266 23.8095 128.395 17.3784 121.142C-10.2719 89.9583 1.41653 39.6354 35.8484 15.3693Z" fill="url(#paint2_linear_135_1631)" stroke="#0E1F26" stroke-width="3"/>
<path id="b262ea8c-1946-46c9-a449-3a1996c39394" d="M104.389 68.1153C104.389 81.248 93.7512 91.8922 80.6309 91.8922C67.5106 91.8922 56.8727 81.248 56.8727 68.1153C56.8727 54.9826 67.5106 44.3384 80.6309 44.3384C93.7511 44.3384 104.389 54.9826 104.389 68.1153Z" fill="url(#paint3_linear_135_1631)" stroke="#0E1F26" stroke-width="3"/>
<path id="Vector_11" opacity="0.2" d="M51.8804 71.8093C52.2351 69.2115 53.0162 66.6939 54.1889 64.357C53.689 67.3475 53.6963 70.4243 54.2344 73.4561C55.3454 79.716 58.6463 85.3761 63.5466 89.4232C68.4469 93.4704 74.6267 95.6404 80.9799 95.5446C84.0583 95.4981 87.0799 94.9212 89.9203 93.8618C89.8769 93.8953 89.8333 93.9287 89.7896 93.9619C87.3052 95.8505 84.4734 97.2308 81.456 98.0241C78.4386 98.8174 75.2947 99.0082 72.2036 98.5856C69.1126 98.163 66.1349 97.1352 63.4407 95.5609C60.7465 93.9867 58.3884 91.8967 56.5011 89.4103C54.6139 86.9239 53.2344 84.0898 52.4416 81.0698C51.6488 78.0498 51.4581 74.9031 51.8804 71.8093Z" fill="#231F20" stroke="#0E1F26" stroke-width="3"/>
<path id="Vector_12" opacity="0.2" d="M15.7697 35.9574C3.94266 61.1898 4.91032 91.5175 24.2007 113.273C30.8235 120.742 40.5783 126.67 52.1291 132.139C61.11 136.392 71.2921 140.417 82.0713 144.679C85.1602 145.9 88.2982 147.141 91.471 148.412C119.828 159.77 151.203 173.641 176.875 198.082C176.172 202.128 175.234 206.129 174.067 210.065C148.099 183.473 115.66 168.608 86.4909 156.817C82.2386 155.098 78.062 153.447 73.9862 151.836C63.7196 147.777 54.0925 143.971 45.505 139.972C33.5077 134.385 23.762 128.514 17.3309 121.261C-3.92144 97.2931 -1.94284 62.0333 15.7697 35.9574Z" fill="#231F20" stroke="#0E1F26" stroke-width="3"/>
</g>
<g id="Mail">
<path id="Vector_13" d="M305.412 284.399H198.141C197.094 284.397 196.091 283.981 195.351 283.24C194.61 282.499 194.194 281.495 194.193 280.447V228.14C194.194 227.092 194.61 226.088 195.351 225.347C196.091 224.606 197.094 224.19 198.141 224.188H305.413C306.459 224.19 307.462 224.606 308.202 225.347C308.943 226.088 309.359 227.093 309.36 228.141V280.447C309.359 281.495 308.943 282.499 308.202 283.24C307.462 283.981 306.459 284.397 305.412 284.399Z" fill="url(#paint4_linear_135_1631)" stroke="#0E1F26" stroke-width="2"/>
<path id="Vector_14" d="M258.161 280.19C234.674 280.19 210.184 279.965 201.048 279.819C200.108 279.799 199.212 279.413 198.552 278.741C197.892 278.069 197.52 277.166 197.516 276.224V228.144C197.517 227.977 197.583 227.818 197.7 227.7C197.817 227.582 197.976 227.516 198.142 227.515H305.409C305.575 227.515 305.734 227.581 305.852 227.699C305.969 227.816 306.036 227.975 306.037 228.141C306.037 228.142 306.037 228.142 306.037 228.143V260.758C306.037 260.759 306.037 260.76 306.037 260.76C306.017 265.823 304.016 270.677 300.462 274.28C296.908 277.884 292.084 279.95 287.026 280.035C278.514 280.146 268.432 280.19 258.161 280.19Z" fill="url(#paint5_linear_135_1631)" stroke="#0E1F26" stroke-width="2"/>
<path id="Vector_15" d="M206.051 255.254C205.757 255.046 205.534 254.753 205.412 254.414C205.412 254.414 205.412 254.413 205.412 254.413L195.534 226.678C195.534 226.678 195.534 226.678 195.534 226.678C195.44 226.415 195.411 226.133 195.448 225.856C195.486 225.579 195.59 225.315 195.751 225.087C195.911 224.858 196.124 224.672 196.372 224.543C196.62 224.414 196.894 224.347 197.173 224.346C197.173 224.346 197.173 224.346 197.173 224.346L306.278 224.194H306.278H306.282C306.57 224.194 306.854 224.265 307.108 224.402C307.362 224.539 307.578 224.737 307.737 224.978C307.896 225.219 307.992 225.496 308.018 225.784C308.044 226.072 307.998 226.362 307.884 226.627L295.941 254.516L295.94 254.516C295.806 254.83 295.583 255.098 295.298 255.286C295.013 255.474 294.68 255.574 294.339 255.573L294.338 256.569V255.573H207.056C206.696 255.573 206.345 255.461 206.051 255.254Z" fill="url(#paint6_linear_135_1631)" stroke="#0E1F26" stroke-width="2"/>
<path id="Vector_16" d="M200.989 271.728C201.325 271.391 201.781 271.201 202.256 271.2H232.353C232.828 271.201 233.284 271.391 233.62 271.728C233.957 272.065 234.146 272.522 234.146 272.998C234.146 273.475 233.956 273.932 233.62 274.269C233.284 274.606 232.828 274.796 232.353 274.797H202.256C201.781 274.796 201.325 274.606 200.989 274.269C200.652 273.932 200.463 273.475 200.463 272.998C200.463 272.522 200.652 272.065 200.989 271.728Z" fill="url(#paint7_linear_135_1631)" stroke="#0E1F26" stroke-width="2"/>
<path id="Vector_17" d="M257.449 256.573C257.449 259.799 254.836 262.413 251.614 262.413C248.392 262.413 245.779 259.799 245.779 256.573C245.779 253.348 248.392 250.734 251.614 250.734C254.836 250.734 257.449 253.348 257.449 256.573Z" fill="url(#paint8_linear_135_1631)" stroke="#0E1F26" stroke-width="2"/>
</g>
<path id="dot" d="M211.19 223.79C211.19 232.106 204.454 238.846 196.147 238.846C187.839 238.846 181.103 232.106 181.103 223.79C181.103 215.474 187.839 208.734 196.147 208.734C204.454 208.734 211.19 215.474 211.19 223.79Z" fill="url(#paint9_linear_135_1631)" stroke="#0E1F26" stroke-width="3"/>
<g id="Man">
<path id="f02c4e45-f306-4b42-b3ad-5ddd3016d7d2" d="M231.926 395.5H447.57C447.886 395.5 448.189 395.374 448.412 395.151C448.635 394.928 448.761 394.625 448.761 394.309C448.761 393.993 448.635 393.69 448.412 393.466C448.189 393.243 447.886 393.117 447.57 393.117H231.926C231.61 393.117 231.307 393.243 231.084 393.466C230.861 393.69 230.735 393.993 230.735 394.309C230.735 394.625 230.861 394.928 231.084 395.151C231.307 395.374 231.61 395.5 231.926 395.5Z" fill="#0E1F26" stroke="#0E1F26"/>
<path id="Vector_18" d="M346.45 228.124L335.724 224.854C331.054 230.488 327.183 246.808 327.183 246.808L312.502 270.681C311.717 271.054 311.043 271.628 310.55 272.345C310.056 273.061 309.76 273.895 309.691 274.763C309.621 275.63 309.782 276.501 310.156 277.286C310.53 278.072 311.104 278.746 311.82 279.239C312.537 279.732 313.371 280.027 314.238 280.095C315.105 280.164 315.974 280.002 316.759 279.627C317.544 279.252 318.216 278.676 318.708 277.959C319.2 277.241 319.494 276.406 319.561 275.539L341.779 248.545L346.45 228.124Z" fill="#FFB6B6"/>
<path id="Vector_19" d="M346.244 230.729L348.227 214.479L343.783 207.053C342.906 205.599 341.639 204.419 340.126 203.646C338.614 202.874 336.915 202.541 335.223 202.684C332.931 202.894 330.804 203.966 329.272 205.686C327.74 207.405 326.917 209.642 326.97 211.945C327.137 218.929 328.236 227.76 332.527 230.174L332.57 230.199L346.244 230.729Z" fill="#0A1E25"/>
<path id="Vector_20" d="M376.546 377.559L370.114 380.665L355.077 357.315L364.571 352.73L376.546 377.559Z" fill="#FFB6B6"/>
<path id="Vector_21" d="M380.012 384.164L360.232 393.719L360.111 393.469C359.126 391.425 358.992 389.074 359.739 386.932C360.485 384.789 362.052 383.032 364.094 382.045L364.094 382.045L366.384 377.556L374.448 377.043L376.175 376.209L380.012 384.164Z" fill="#0A1E25"/>
<path id="Vector_22" d="M328.667 386.263L321.525 386.262L318.127 358.692L328.668 358.692L328.667 386.263Z" fill="#FFB6B6"/>
<path id="Vector_23" d="M328.919 393.719L306.955 393.718V393.44C306.955 391.171 307.856 388.995 309.459 387.391C311.062 385.787 313.236 384.885 315.504 384.885H315.504L319.516 381.839L327.002 384.886L328.919 384.886L328.919 393.719Z" fill="#0A1E25"/>
<path id="Vector_24" d="M321.588 258.397L313.404 314.88L315.631 322.312L312.708 327.575L317.001 367.192L315.258 371.031L320.126 374.036H330.032L330.558 332.187L333.005 326.042V322.656L337.986 297.138L339.135 336.863L340.725 339.933C346.649 353.383 354.628 357.786 360.269 367.84L370.176 362.47L369.968 358.465C371.958 357.457 366.98 354.51 366.502 352.33L365.635 348.426L359.857 336.447L359.636 332.229L361.218 303.537L360.473 264.9L347.48 254.957L321.588 258.397Z" fill="#1D2C33"/>
<path id="Vector_25" d="M334.449 189.887C341.556 189.887 347.318 184.121 347.318 177.008C347.318 169.895 341.556 164.129 334.449 164.129C327.341 164.129 321.579 169.895 321.579 177.008C321.579 184.121 327.341 189.887 334.449 189.887Z" fill="#FFB6B6"/>
<path id="Vector_26" d="M315.433 282.763L315.245 282.697L317.736 274.596C317.409 273.552 317.347 272.443 317.554 271.369C317.762 270.295 318.233 269.29 318.925 268.443C318.522 267.745 316.862 264.45 319.566 261.65C319.405 260.833 318.591 256.001 321.43 253.639C321.43 253.639 326.937 211.865 330.026 200.831C330.116 200.023 329.392 193.432 333.547 193.174C335.739 193.038 339.027 192.83 343.962 192.511C344.6 192.465 344.974 193.543 345.539 195.296C345.923 196.483 343.951 198.104 344.428 198.077L344.462 198.075L344.494 198.083C349.098 199.319 353.137 202.103 355.931 205.967C358.725 209.831 360.104 214.541 359.837 219.303L358.37 244.264C358.592 245.268 363.265 273.732 362.043 276.787C361.35 278.521 362.532 279.6 363.394 280.389C363.839 280.795 364.16 281.088 364.115 281.409C364.097 281.497 364.057 281.579 363.999 281.648C363.941 281.717 363.866 281.77 363.782 281.802C363.002 282.192 363.433 284.87 363.889 286.467L363.935 286.63L363.784 286.707C363.61 286.797 349.645 280.387 332.678 280.386C326.283 280.386 322.587 285.26 315.433 282.763Z" fill="#0A1E25"/>
<path id="Vector_27" d="M344.648 184.927C344.514 184.858 344.396 184.762 344.302 184.644C344.208 184.527 344.139 184.391 344.101 184.246L343.918 183.498L344.482 184.086C344.783 183.836 345.014 183.511 345.15 183.143C345.286 182.776 345.323 182.379 345.257 181.992C345.191 181.606 345.024 181.244 344.773 180.942C344.523 180.641 344.197 180.411 343.829 180.276C343.581 180.193 343.327 180.131 343.068 180.091C342.798 180.048 342.531 179.983 342.271 179.898C341.662 179.635 341.137 179.21 340.752 178.669C340.368 178.128 340.138 177.492 340.089 176.83C340.006 175.663 340.135 174.49 340.471 173.369C334.792 174.242 329.002 174.068 323.386 172.855C322.52 172.672 321.691 172.346 320.933 171.89C319.547 171.067 318.392 169.904 317.578 168.511C317.47 168.323 317.426 168.106 317.451 167.891C317.475 167.676 317.568 167.474 317.715 167.316C317.818 167.205 317.942 167.117 318.08 167.056C318.218 166.995 318.367 166.963 318.517 166.962L318.312 166.406C318.247 166.232 318.23 166.044 318.262 165.861C318.294 165.678 318.374 165.507 318.494 165.365C318.613 165.224 318.768 165.116 318.943 165.054C319.117 164.991 319.305 164.977 319.488 165.011L320.216 165.147L320.146 164.663C320.12 164.482 320.141 164.298 320.208 164.128C320.275 163.958 320.384 163.809 320.526 163.695C320.668 163.58 320.838 163.505 321.018 163.476C321.198 163.447 321.382 163.466 321.553 163.53C321.709 163.589 321.876 163.613 322.043 163.601C322.209 163.589 322.371 163.541 322.517 163.461C322.663 163.38 322.79 163.268 322.889 163.134C322.988 162.999 323.057 162.845 323.091 162.681L323.341 161.464L323.366 161.399C324.599 159.345 326.966 157.851 329.862 157.302C332.444 156.812 335.081 157.059 337.631 157.299C338.712 157.32 339.775 157.589 340.737 158.084C341.172 158.335 341.53 158.703 341.769 159.145C342.008 159.588 342.12 160.089 342.091 160.591C344.602 159.819 347.296 161.358 348.628 163.298C350.212 165.604 350.468 168.498 350.514 170.761C350.624 176.111 349.522 180.489 347.241 183.772C346.914 184.329 346.42 184.769 345.829 185.028C345.678 185.079 345.52 185.104 345.361 185.104C345.112 185.105 344.867 185.044 344.648 184.927V184.927Z" fill="#0A1E25"/>
<path id="Vector_28" d="M345.11 235.637L335.664 229.591C329.649 233.755 321.519 248.424 321.519 248.424L300.945 267.445C300.088 267.593 299.284 267.963 298.616 268.52C297.947 269.076 297.437 269.799 297.137 270.616C296.836 271.433 296.756 272.314 296.904 273.172C297.052 274.029 297.423 274.833 297.98 275.501C298.537 276.17 299.26 276.679 300.077 276.979C300.893 277.279 301.774 277.358 302.631 277.209C303.488 277.06 304.29 276.687 304.957 276.129C305.624 275.571 306.133 274.847 306.431 274.029L335.106 254.039L345.11 235.637Z" fill="#FFB6B6"/>
<path id="Vector_29" d="M344.21 238.09L350.501 222.979L348.226 214.628C347.773 212.991 346.872 211.512 345.623 210.36C344.375 209.208 342.83 208.429 341.162 208.11V208.11C338.898 207.692 336.561 208.15 334.622 209.392C332.683 210.633 331.287 212.565 330.717 214.797C328.994 221.567 327.671 230.368 331.151 233.851L331.186 233.886L344.21 238.09Z" fill="#0A1E25"/>
</g>
</g>
<defs>
<linearGradient id="paint0_linear_135_1631" x1="209.143" y1="397.941" x2="294.831" y2="68.7226" gradientUnits="userSpaceOnUse">
<stop stop-color="#C0D7E0" stop-opacity="0.19"/>
<stop offset="1" stop-color="#C0D7E0"/>
</linearGradient>
<linearGradient id="paint1_linear_135_1631" x1="181.578" y1="62.2234" x2="181.578" y2="277.429" gradientUnits="userSpaceOnUse">
<stop stop-color="#BFD5DE"/>
<stop offset="1" stop-color="#BFD5DE" stop-opacity="0.2"/>
</linearGradient>
<linearGradient id="paint2_linear_135_1631" x1="90.5685" y1="0.00610352" x2="90.5685" y2="212.818" gradientUnits="userSpaceOnUse">
<stop stop-color="#263A40"/>
<stop offset="0.755208" stop-color="#3C3C3C"/>
</linearGradient>
<linearGradient id="paint3_linear_135_1631" x1="80.6309" y1="42.8384" x2="80.6309" y2="93.3922" gradientUnits="userSpaceOnUse">
<stop stop-color="#BFD5DA"/>
<stop offset="1" stop-color="#BFD5DA" stop-opacity="0.4"/>
</linearGradient>
<linearGradient id="paint4_linear_135_1631" x1="251.777" y1="223.188" x2="251.777" y2="285.399" gradientUnits="userSpaceOnUse">
<stop stop-color="#263A40"/>
<stop offset="0.755208" stop-color="#3C3C3C"/>
</linearGradient>
<linearGradient id="paint5_linear_135_1631" x1="251.777" y1="226.515" x2="251.777" y2="281.19" gradientUnits="userSpaceOnUse">
<stop stop-color="#BFD5DA"/>
<stop offset="1" stop-color="#BFD5DA" stop-opacity="0.4"/>
</linearGradient>
<linearGradient id="paint6_linear_135_1631" x1="251.729" y1="223.194" x2="251.729" y2="256.573" gradientUnits="userSpaceOnUse">
<stop stop-color="#263A40"/>
<stop offset="0.755208" stop-color="#3C3C3C"/>
</linearGradient>
<linearGradient id="paint7_linear_135_1631" x1="217.304" y1="270.2" x2="217.304" y2="275.797" gradientUnits="userSpaceOnUse">
<stop stop-color="#263A40"/>
<stop offset="0.755208" stop-color="#3C3C3C"/>
</linearGradient>
<linearGradient id="paint8_linear_135_1631" x1="251.614" y1="249.734" x2="251.614" y2="263.413" gradientUnits="userSpaceOnUse">
<stop stop-color="#263A40"/>
<stop offset="0.755208" stop-color="#3C3C3C"/>
</linearGradient>
<linearGradient id="paint9_linear_135_1631" x1="196.147" y1="207.234" x2="196.147" y2="240.346" gradientUnits="userSpaceOnUse">
<stop stop-color="#263A40"/>
<stop offset="0.755208" stop-color="#3C3C3C"/>
</linearGradient>
</defs>
</svg>
