<svg width="52" height="47" viewBox="0 0 52 47" fill="none" xmlns="http://www.w3.org/2000/svg">
<path fill-rule="evenodd" clip-rule="evenodd" d="M26.031 0.715759C11.816 0.715759 0.294823 11.2437 0.294823 24.2333C0.294823 34.6221 7.66681 43.4382 17.8952 46.5506C19.1828 46.7628 19.6472 46.0389 19.6472 45.4165C19.6472 44.8577 19.6266 43.3769 19.6189 41.4175C12.4585 42.8369 10.9464 38.2627 10.9464 38.2627C9.78009 35.5464 8.08998 34.8225 8.08998 34.8225C5.75479 33.363 8.26802 33.396 8.26802 33.396C10.8535 33.561 12.2082 35.8199 12.2082 35.8199C14.5047 39.4133 18.2358 38.3758 19.6963 37.7746C19.9311 36.2537 20.602 35.2163 21.3348 34.6292C15.6219 34.0373 9.61495 32.019 9.61495 23.0048C9.61495 20.4418 10.6187 18.3386 12.2572 16.6975C11.9966 16.1009 11.1064 13.7077 12.5127 10.4727C12.5127 10.4727 14.6724 9.8384 19.5879 12.8801C21.6872 12.3582 23.8528 12.0918 26.0284 12.0878C28.2041 12.091 30.3697 12.3574 32.4689 12.8801C37.387 9.83604 39.5441 10.4727 39.5441 10.4727C40.9504 13.7077 40.0679 16.1009 39.7996 16.6975C41.451 18.3386 42.4418 20.4394 42.4418 23.0048C42.4418 32.0426 36.4297 34.0279 30.6962 34.6103C31.6122 35.3365 32.4379 36.7701 32.4379 38.9629C32.4379 42.1084 32.4069 44.6454 32.4069 45.4165C32.4069 46.046 32.8662 46.777 34.1796 46.5459C44.4029 43.4288 51.7671 34.6197 51.7671 24.2333C51.7671 11.2437 40.246 0.715759 26.031 0.715759Z" fill="#E6E6E6"/>
</svg>
