<svg width="39" height="48" viewBox="0 0 39 48" fill="none" xmlns="http://www.w3.org/2000/svg">
<path d="M10.4929 30.6142C10.059 30.6142 9.76666 30.6566 9.61575 30.6991V33.4767C9.79495 33.5191 10.019 33.5309 10.3278 33.5309C11.4573 33.5309 12.1529 32.9603 12.1529 31.9959C12.1529 31.1329 11.554 30.6142 10.4929 30.6142V30.6142ZM18.715 30.6425C18.2434 30.6425 17.9368 30.6849 17.7553 30.7274V36.8815C17.9368 36.924 18.2292 36.924 18.4933 36.924C20.4197 36.9381 21.6741 35.8771 21.6741 33.6323C21.6883 31.6753 20.5447 30.6425 18.715 30.6425V30.6425Z" fill="#c0d7e0"/>
<path d="M24.0108 0.71582H5.1475C3.89679 0.71582 2.6973 1.21267 1.81291 2.09706C0.928516 2.98145 0.431671 4.18094 0.431671 5.43165V43.1583C0.431671 44.409 0.928516 45.6085 1.81291 46.4929C2.6973 47.3773 3.89679 47.8742 5.1475 47.8742H33.4425C34.6932 47.8742 35.8927 47.3773 36.7771 46.4929C37.6615 45.6085 38.1583 44.409 38.1583 43.1583V14.8633L24.0108 0.71582ZM13.3955 34.1747C12.6669 34.8585 11.5917 35.165 10.3396 35.165C10.0969 35.1676 9.85421 35.1534 9.6134 35.1225V38.4849H7.50542V29.2042C8.45673 29.0623 9.41797 28.9976 10.3797 29.0108C11.6931 29.0108 12.6268 29.2608 13.2564 29.763C13.8553 30.2393 14.2609 31.0198 14.2609 31.9394C14.2585 32.8637 13.952 33.6441 13.3955 34.1747V34.1747ZM22.3721 37.3696C21.3818 38.1925 19.8751 38.584 18.0335 38.584C16.93 38.584 16.1495 38.5132 15.619 38.4425V29.2065C16.5707 29.0676 17.5316 29.0022 18.4933 29.0108C20.2783 29.0108 21.4384 29.3315 22.3438 30.0153C23.3223 30.7415 23.9354 31.8993 23.9354 33.5616C23.9354 35.3607 23.2775 36.6033 22.3721 37.3696V37.3696ZM31.0846 30.8264H27.4723V32.9745H30.8488V34.7052H27.4723V38.4873H25.336V29.0816H31.0846V30.8264ZM24.0108 17.2212H21.6529V5.43165L33.4425 17.2212H24.0108Z" fill="#e6e6e6"/>
</svg>
