<svg id="visual" viewBox="0 0 126 70" width="126" height="70" xmlns="http://www.w3.org/2000/svg" xmlns:xlink="http://www.w3.org/1999/xlink" version="1.1"><rect x="0" y="0" width="126" height="70" fill="#002233"></rect><path d="M0 52L2.3 51.8C4.7 51.7 9.3 51.3 14 51.8C18.7 52.3 23.3 53.7 28 53.3C32.7 53 37.3 51 42 49.7C46.7 48.3 51.3 47.7 56 48.3C60.7 49 65.3 51 70 52.5C74.7 54 79.3 55 84 53.8C88.7 52.7 93.3 49.3 98 47.8C102.7 46.3 107.3 46.7 112 47.7C116.7 48.7 121.3 50.3 123.7 51.2L126 52L126 71L123.7 71C121.3 71 116.7 71 112 71C107.3 71 102.7 71 98 71C93.3 71 88.7 71 84 71C79.3 71 74.7 71 70 71C65.3 71 60.7 71 56 71C51.3 71 46.7 71 42 71C37.3 71 32.7 71 28 71C23.3 71 18.7 71 14 71C9.3 71 4.7 71 2.3 71L0 71Z" fill="#909090" stroke-linecap="round" stroke-linejoin="miter"></path></svg>