<svg width="429" height="423" viewBox="0 0 429 423" fill="none" xmlns="http://www.w3.org/2000/svg">
<g id="Frontend-Images">
<path id="background-front" d="M394.576 266.543C411.278 247.219 416.719 220.596 408.94 196.266V196.266C404.738 183.124 396.666 171.669 384.183 165.791C357.708 153.325 314.46 137.418 304.235 126.842C280.631 102.597 290.244 64.0026 251.957 52.6532C158.934 25.0793 82.989 65.1934 46.8691 126.842C-8.326 221.048 -53.6172 375.531 178.646 300.885C219.291 287.822 243.241 304.019 273.967 319.397C289.759 327.301 307.781 328.686 325.172 325.628L329.264 324.909C340.602 322.916 350.905 317.071 358.432 308.362L394.576 266.543Z" fill="url(#paint0_linear_163_3)"/>
<g id="center-front">
<rect id="web-background" x="121.267" y="45" width="188" height="282" fill="url(#paint1_linear_163_3)" fill-opacity="0.9"/>
<path id="Vector" d="M121.736 224.321H308.59V274.984H121.736V224.321Z" fill="#0E1F26" stroke="black" stroke-width="0.5"/>
<path id="Vector_2" d="M289.467 101.105L296.738 97.6371C299.871 103.159 301.54 109.401 301.585 115.761H227.671C227.73 107.47 230.546 99.436 235.67 92.945L284.915 84.9529C286.256 85.8419 287.537 86.8176 288.752 87.8737L259.831 98.9894L259.982 99.4653L292.279 91.3769C293.51 92.7746 294.635 94.2632 295.645 95.8303L289.209 100.679L289.467 101.105Z" fill="#E6E6E6" fill-opacity="0.7" stroke="black" stroke-width="0.5"/>
<path id="Vector_3" d="M272.598 115.761H264.265L239.438 78.6045C239.685 78.6986 239.99 78.8175 240.348 78.9609C241.385 79.376 242.862 79.9967 244.621 80.8177C248.141 82.4601 252.786 84.9025 257.292 88.1038C266.273 94.4825 274.615 103.806 272.598 115.761Z" fill="#669A2D" stroke="black" stroke-width="0.5"/>
<path id="Vector_4" d="M288.908 78.9609C289.266 78.8175 289.572 78.6986 289.818 78.6045L264.991 115.761H256.659C254.641 103.806 262.984 94.4825 271.964 88.1038C276.471 84.9025 281.115 82.4601 284.635 80.8177C286.394 79.9967 287.871 79.376 288.908 78.9609Z" fill="#0E1F26" stroke="black" stroke-width="0.5"/>
<path id="Vector_5" d="M121.892 326.397V326.647H122.142H308.183H308.433V326.397V45.8821V45.6321H308.183H122.142H121.892V45.8821V326.397ZM308.809 327.029H121.517V45.25H308.809V327.029Z" fill="#0E1F26" stroke="black" stroke-width="0.5"/>
<path id="Vector_6" d="M122.173 51.9458H308.59V52.3279H122.173V51.9458Z" fill="black" stroke="black" stroke-width="0.5"/>
<path id="Vector_7" d="M126.739 50.2926C127.706 50.2926 128.49 49.5028 128.49 48.5284C128.49 47.554 127.706 46.7642 126.739 46.7642C125.772 46.7642 124.988 47.554 124.988 48.5284C124.988 49.5028 125.772 50.2926 126.739 50.2926Z" fill="#FF6584"/>
<path id="Vector_8" d="M131.554 50.2926C132.521 50.2926 133.305 49.5028 133.305 48.5284C133.305 47.554 132.521 46.7642 131.554 46.7642C130.587 46.7642 129.803 47.554 129.803 48.5284C129.803 49.5028 130.587 50.2926 131.554 50.2926Z" fill="#FF6584"/>
<path id="Vector_9" d="M136.369 50.2926C137.336 50.2926 138.12 49.5028 138.12 48.5284C138.12 47.554 137.336 46.7642 136.369 46.7642C135.402 46.7642 134.618 47.554 134.618 48.5284C134.618 49.5028 135.402 50.2926 136.369 50.2926Z" fill="#FF6584"/>
<path id="Vector_10" d="M136.369 57.7908H128.49V62.2014H136.369V57.7908Z" fill="black"/>
<path id="Vector_11" d="M167.011 92.6345H128.49V97.0451H167.011V92.6345Z" fill="black"/>
<path id="Vector_12" d="M303.775 61.9514L265.754 61.9514V58.0408L303.775 58.0408V61.9514Z" fill="#0E1F26" stroke="black" stroke-width="0.5"/>
<path id="Vector_13" d="M193.276 100.133H128.49V102.779H193.276V100.133Z" fill="#0E1F26"/>
<path id="Vector_14" d="M189.774 105.866H128.49V108.513H189.774V105.866Z" fill="#0E1F26"/>
<path id="Vector_15" d="M173.14 111.6H128.49V114.247H173.14V111.6Z" fill="#E6E6E6" fill-opacity="0.7"/>
<path id="Vector_16" d="M168.762 190.109H143.373V192.755H168.762V190.109Z" fill="#E6E6E6" fill-opacity="0.7"/>
<path id="Vector_17" d="M167.39 195.843H143.373V198.489H167.39V195.843Z" fill="#E6E6E6" fill-opacity="0.7"/>
<path id="Vector_18" d="M160.871 201.577H143.373V204.223H160.871V201.577Z" fill="#E6E6E6" fill-opacity="0.7"/>
<path id="Vector_19" d="M227.857 190.109H202.468V192.755H227.857V190.109Z" fill="#E6E6E6" fill-opacity="0.7"/>
<path id="Vector_20" d="M226.485 195.843H202.468V198.489H226.485V195.843Z" fill="#E6E6E6" fill-opacity="0.7"/>
<path id="Vector_21" d="M219.966 201.577H202.468V204.223H219.966V201.577Z" fill="#E6E6E6" fill-opacity="0.7"/>
<path id="Vector_22" d="M289.142 190.109H263.753V192.755H289.142V190.109Z" fill="#E6E6E6" fill-opacity="0.7"/>
<path id="Vector_23" d="M287.769 195.843H263.753V198.489H287.769V195.843Z" fill="#E6E6E6" fill-opacity="0.7"/>
<path id="Vector_24" d="M281.251 201.577H263.753V204.223H281.251V201.577Z" fill="#E6E6E6" fill-opacity="0.7"/>
<path id="Vector_25" d="M221.292 290.23H182.77V294.64H221.292V290.23Z" fill="black" fill-opacity="0.5"/>
<path id="Vector_26" d="M183.02 297.978H247.306V300.124H183.02V297.978Z" fill="#E6E6E6" fill-opacity="0.7" stroke="black" stroke-width="0.5"/>
<path id="Vector_27" d="M183.02 303.712H243.804V305.858H183.02V303.712Z" fill="#E6E6E6" fill-opacity="0.7" stroke="black" stroke-width="0.5"/>
<path id="Vector_28" d="M183.02 309.445H227.17V311.592H183.02V309.445Z" fill="#E6E6E6" fill-opacity="0.7" stroke="black" stroke-width="0.5"/>
<path id="Vector_29" opacity="0.5" d="M292.425 140.269H140.09V141.151H292.425V140.269Z" fill="black"/>
<path id="Vector_30" opacity="0.5" d="M140.121 155.956H172.014V184.566H140.121V155.956Z" fill="black" stroke="black" stroke-width="0.5"/>
<path id="Vector_31" d="M199.216 155.956H231.109V184.566H199.216V155.956Z" fill="#0E1F26" stroke="black" stroke-width="0.5"/>
<path id="Vector_32" d="M260.5 155.956H292.394V184.566H260.5V155.956Z" fill="#0E1F26" stroke="black" stroke-width="0.5"/>
<g id="Vector_33">
<mask id="path-35-inside-1_163_3" fill="white">
<path d="M210.942 184.694L210.515 184.686C210.524 184.209 210.791 172.97 215.182 169.864L215.428 170.217C211.214 173.197 210.945 184.579 210.942 184.694Z"/>
</mask>
<path d="M210.942 184.694L210.515 184.686C210.524 184.209 210.791 172.97 215.182 169.864L215.428 170.217C211.214 173.197 210.945 184.579 210.942 184.694Z" fill="black"/>
<path d="M210.942 184.694L210.933 185.194L211.433 185.204L211.442 184.703L210.942 184.694ZM210.515 184.686L210.015 184.676L210.006 185.176L210.505 185.185L210.515 184.686ZM215.182 169.864L215.593 169.578L215.305 169.165L214.894 169.456L215.182 169.864ZM215.428 170.217L215.717 170.625L216.122 170.338L215.838 169.931L215.428 170.217ZM210.952 184.194L210.525 184.186L210.505 185.185L210.933 185.194L210.952 184.194ZM211.015 184.695C211.019 184.468 211.088 181.571 211.697 178.354C212.002 176.745 212.438 175.073 213.061 173.621C213.688 172.161 214.481 170.973 215.471 170.272L214.894 169.456C213.688 170.309 212.802 171.69 212.143 173.226C211.48 174.77 211.026 176.519 210.714 178.168C210.09 181.465 210.02 184.426 210.015 184.676L211.015 184.695ZM214.772 170.15L215.018 170.502L215.838 169.931L215.593 169.578L214.772 170.15ZM215.139 169.808C213.973 170.633 213.12 172.005 212.488 173.528C211.851 175.061 211.415 176.805 211.114 178.44C210.513 181.71 210.444 184.615 210.443 184.685L211.442 184.703C211.442 184.703 211.442 184.702 211.442 184.7C211.443 184.699 211.443 184.696 211.443 184.693C211.443 184.686 211.443 184.677 211.443 184.665C211.444 184.641 211.445 184.607 211.447 184.562C211.45 184.474 211.455 184.347 211.462 184.185C211.478 183.862 211.505 183.402 211.55 182.843C211.64 181.724 211.804 180.215 212.098 178.621C212.391 177.023 212.812 175.355 213.411 173.912C214.014 172.459 214.776 171.29 215.717 170.625L215.139 169.808Z" fill="black" mask="url(#path-35-inside-1_163_3)"/>
</g>
<path id="Vector_34" d="M219.329 167.569C219.329 168.622 218.482 169.472 217.442 169.472C216.402 169.472 215.555 168.622 215.555 167.569C215.555 166.516 216.402 165.666 217.442 165.666C218.482 165.666 219.329 166.516 219.329 167.569Z" fill="#D1C23A" stroke="black" stroke-width="0.5"/>
<path id="Vector_35" d="M214.043 175.154C214.7 174.425 215.531 173.873 216.46 173.552C217.388 173.231 218.379 173.153 219.342 173.322C218.671 174.037 217.846 174.589 216.928 174.935C215.994 175.229 215.007 175.303 214.043 175.154Z" fill="black" stroke="black" stroke-width="0.5"/>
<g id="Vector_36">
<mask id="path-39-inside-2_163_3" fill="white">
<path d="M272.227 184.694L271.799 184.686C271.809 184.209 272.076 172.97 276.467 169.864L276.712 170.217C272.498 173.197 272.229 184.579 272.227 184.694Z"/>
</mask>
<path d="M272.227 184.694L271.799 184.686C271.809 184.209 272.076 172.97 276.467 169.864L276.712 170.217C272.498 173.197 272.229 184.579 272.227 184.694Z" fill="black"/>
<path d="M272.227 184.694L272.217 185.194L272.717 185.204L272.727 184.703L272.227 184.694ZM271.799 184.686L271.299 184.676L271.29 185.176L271.789 185.185L271.799 184.686ZM276.467 169.864L276.877 169.578L276.589 169.165L276.178 169.456L276.467 169.864ZM276.712 170.217L277.001 170.625L277.406 170.338L277.122 169.931L276.712 170.217ZM272.237 184.194L271.809 184.186L271.789 185.185L272.217 185.194L272.237 184.194ZM272.299 184.695C272.304 184.468 272.372 181.571 272.981 178.354C273.286 176.745 273.723 175.073 274.346 173.621C274.972 172.161 275.766 170.973 276.755 170.272L276.178 169.456C274.972 170.309 274.086 171.69 273.427 173.226C272.764 174.77 272.311 176.519 271.999 178.168C271.374 181.465 271.304 184.426 271.299 184.676L272.299 184.695ZM276.056 170.15L276.302 170.502L277.122 169.931L276.877 169.578L276.056 170.15ZM276.423 169.808C275.257 170.633 274.405 172.005 273.772 173.528C273.135 175.061 272.699 176.805 272.398 178.44C271.797 181.71 271.728 184.615 271.727 184.685L272.727 184.703C272.727 184.703 272.727 184.702 272.727 184.7C272.727 184.699 272.727 184.696 272.727 184.693C272.727 184.686 272.727 184.677 272.728 184.665C272.728 184.641 272.729 184.607 272.731 184.562C272.734 184.474 272.739 184.347 272.747 184.185C272.762 183.862 272.789 183.402 272.834 182.843C272.925 181.724 273.088 180.215 273.382 178.621C273.675 177.023 274.096 175.355 274.696 173.912C275.299 172.459 276.06 171.29 277.001 170.625L276.423 169.808Z" fill="black" mask="url(#path-39-inside-2_163_3)"/>
</g>
<path id="Vector_37" d="M280.613 167.569C280.613 168.622 279.766 169.472 278.726 169.472C277.686 169.472 276.839 168.622 276.839 167.569C276.839 166.516 277.686 165.666 278.726 165.666C279.766 165.666 280.613 166.516 280.613 167.569Z" fill="#D1C23A" stroke="black" stroke-width="0.5"/>
<path id="Vector_38" d="M278.212 174.935C277.278 175.229 276.291 175.303 275.327 175.154C275.984 174.425 276.815 173.873 277.744 173.552C278.672 173.231 279.663 173.153 280.626 173.322C279.955 174.037 279.13 174.589 278.212 174.935Z" fill="black" stroke="black" stroke-width="0.5"/>
<path id="Vector_39" d="M167.011 240.39H128.49V244.8H167.011V240.39Z" fill="black" fill-opacity="0.5"/>
<path id="Vector_40" d="M128.74 248.138H193.026V250.284H128.74V248.138Z" fill="#E6E6E6" fill-opacity="0.7" stroke="black" stroke-width="0.5"/>
<path id="Vector_41" d="M128.74 253.872H189.524V256.018H128.74V253.872Z" fill="#E6E6E6" fill-opacity="0.7" stroke="black" stroke-width="0.5"/>
<path id="Vector_42" d="M128.74 259.606H172.89V261.752H128.74V259.606Z" fill="#E6E6E6" fill-opacity="0.7" stroke="black" stroke-width="0.5"/>
<path id="Vector_43" opacity="0.4" d="M284.514 246.476C284.514 253.952 278.5 260.009 271.086 260.009C263.671 260.009 257.657 253.952 257.657 246.476C257.657 239.001 263.671 232.944 271.086 232.944C278.5 232.944 284.514 239.001 284.514 246.476Z" fill="#C38848" stroke="black" stroke-width="0.5"/>
<path id="Vector_44" opacity="0.4" d="M255.116 253.059C255.116 258.262 250.93 262.477 245.77 262.477C240.611 262.477 236.425 258.262 236.425 253.059C236.425 247.856 240.611 243.641 245.77 243.641C250.93 243.641 255.116 247.856 255.116 253.059Z" fill="#C38848" stroke="black" stroke-width="0.5"/>
<path id="Vector_45" d="M137.209 136.728L167.759 145.956L159.605 173.361L129.055 164.133L137.209 136.728Z" fill="#0E1F26" stroke="black" stroke-width="0.5"/>
<g id="Vector_46">
<mask id="path-50-inside-3_163_3" fill="white">
<path d="M140.251 167.648L139.844 167.516C139.988 167.062 143.447 156.375 148.539 154.67L148.673 155.078C143.787 156.714 140.285 167.539 140.251 167.648Z"/>
</mask>
<path d="M140.251 167.648L139.844 167.516C139.988 167.062 143.447 156.375 148.539 154.67L148.673 155.078C143.787 156.714 140.285 167.539 140.251 167.648Z" fill="black"/>
<path d="M140.251 167.648L140.097 168.124L140.575 168.279L140.727 167.799L140.251 167.648ZM139.844 167.516L139.367 167.365L139.216 167.839L139.69 167.992L139.844 167.516ZM148.539 154.67L149.014 154.513L148.856 154.036L148.38 154.196L148.539 154.67ZM148.673 155.078L148.832 155.552L149.304 155.394L149.148 154.922L148.673 155.078ZM140.405 167.172L139.998 167.041L139.69 167.992L140.097 168.124L140.405 167.172ZM140.32 167.668C140.389 167.452 141.28 164.697 142.78 161.792C143.531 160.339 144.426 158.863 145.436 157.653C146.452 156.436 147.551 155.528 148.697 155.144L148.38 154.196C146.981 154.664 145.738 155.731 144.669 157.012C143.594 158.299 142.661 159.844 141.892 161.333C140.354 164.311 139.443 167.127 139.367 167.365L140.32 167.668ZM148.064 154.826L148.198 155.235L149.148 154.922L149.014 154.513L148.064 154.826ZM148.515 154.604C147.162 155.057 145.954 156.125 144.913 157.401C143.867 158.686 142.951 160.23 142.197 161.709C140.689 164.668 139.795 167.43 139.774 167.497L140.727 167.799C140.727 167.8 140.727 167.799 140.728 167.797C140.729 167.795 140.729 167.793 140.73 167.79C140.732 167.783 140.735 167.774 140.739 167.763C140.747 167.74 140.757 167.708 140.771 167.666C140.799 167.582 140.84 167.462 140.894 167.309C141.001 167.004 141.158 166.571 141.36 166.049C141.766 165.004 142.353 163.606 143.088 162.163C143.825 160.718 144.703 159.242 145.689 158.033C146.68 156.816 147.742 155.918 148.832 155.552L148.515 154.604Z" fill="black" mask="url(#path-50-inside-3_163_3)"/>
</g>
<path id="Vector_47" d="M153.244 153.125C153.244 154.178 152.398 155.028 151.357 155.028C150.317 155.028 149.471 154.178 149.471 153.125C149.471 152.072 150.317 151.222 151.357 151.222C152.398 151.222 153.244 152.072 153.244 153.125Z" fill="#D1C23A" stroke="black" stroke-width="0.5"/>
<path id="Vector_48" d="M148.767 160.032C147.788 160.044 146.821 159.829 145.939 159.407C146.777 158.899 147.73 158.61 148.71 158.572C149.691 158.533 150.664 158.745 151.538 159.186C150.692 159.677 149.744 159.967 148.767 160.032Z" fill="black" stroke="black" stroke-width="0.5"/>
</g>
<g id="javascript" clip-path="url(#clip0_163_3)">
<path id="Vector_49" d="M4.26685 177H88.2668V261H4.26685V177Z" fill="#D1C23A"/>
<path id="Vector_50" d="M81.3918 240.966C80.777 237.133 78.2778 233.916 70.8759 230.913C68.3048 229.732 65.4382 228.885 64.5839 226.937C64.2804 225.803 64.2405 225.164 64.4321 224.478C64.9831 222.25 67.642 221.555 69.75 222.194C71.1074 222.649 72.393 223.695 73.1675 225.364C76.7926 223.016 76.7846 223.032 79.3158 221.419C78.3895 219.982 77.8945 219.319 77.2876 218.705C75.1078 216.269 72.1375 215.016 67.3865 215.111C66.5641 215.215 65.7337 215.327 64.9112 215.431C62.5398 216.03 60.2801 217.275 58.9546 218.944C54.9782 223.456 56.112 231.352 60.9508 234.602C65.7177 238.18 72.7203 238.994 73.6146 242.34C74.485 246.436 70.6045 247.761 66.7477 247.29C63.9051 246.699 62.3242 245.254 60.6154 242.627C57.4695 244.448 57.4695 244.448 54.2357 246.308C55.0022 247.985 55.8086 248.743 57.0942 250.197C63.1786 256.369 78.4055 256.066 81.1364 246.723C81.2481 246.404 81.9828 244.264 81.3918 240.966V240.966ZM49.9318 215.606H42.0747C42.0747 222.394 42.0429 229.133 42.0429 235.92C42.0429 240.24 42.2665 244.2 41.5638 245.414C40.414 247.801 37.4357 247.506 36.0783 247.043C34.6969 246.364 33.9942 245.398 33.1798 244.032C32.9562 243.641 32.7885 243.338 32.7326 243.314C30.6007 244.615 28.4767 245.925 26.3447 247.226C27.4068 249.406 28.9717 251.299 30.9759 252.528C33.9702 254.325 37.9945 254.876 42.2026 253.909C44.9414 253.111 47.3048 251.458 48.5424 248.943C50.331 245.645 49.9477 241.653 49.9318 237.237C49.9717 230.035 49.9318 222.833 49.9318 215.606Z" fill="#403325"/>
</g>
<g id="figma" clip-path="url(#clip1_163_3)">
<path id="Vector_51" d="M359.52 279C368.488 279 375.767 271.384 375.767 262V245H359.52C350.552 245 343.273 252.616 343.273 262C343.273 271.384 350.552 279 359.52 279Z" fill="#263A41"/>
<path id="Vector_52" d="M343.273 228C343.273 218.616 350.552 211 359.52 211H375.767V245H359.52C350.552 245 343.273 237.384 343.273 228Z" fill="#3F3D56"/>
<path id="Vector_53" d="M343.273 194C343.273 184.616 350.552 177 359.52 177H375.767V211H359.52C350.552 211 343.273 203.384 343.273 194Z" fill="#FF6584"/>
<path id="Vector_54" d="M375.767 177H392.014C400.982 177 408.26 184.616 408.26 194C408.26 203.384 400.982 211 392.014 211H375.767V177Z" fill="#FFB6B6"/>
<path id="Vector_55" d="M408.26 228C408.26 237.384 400.982 245 392.014 245C383.045 245 375.767 237.384 375.767 228C375.767 218.616 383.045 211 392.014 211C400.982 211 408.26 218.616 408.26 228Z" fill="white"/>
</g>
<g id="html" clip-path="url(#clip2_163_3)">
<path id="Vector_56" d="M322.463 96.5725L316.267 16.1504L390.267 16.312L383.715 96.5725L353.546 105.85L322.463 96.5725Z" fill="#C38848"/>
<path id="Vector_57" d="M353.546 98.0827V23.8094L384.02 23.9172L378.586 90.3691L353.546 98.0827Z" fill="#403325"/>
<path id="Vector_58" d="M375.64 42.3645L376.503 32.5474H329.625L332.215 62.6453H364.567L363.299 75.4824L352.937 78.4485L342.424 75.2124L341.866 67.5533H332.57L333.84 83.1954L352.937 88.8589L372.186 83.1954L374.776 52.6665H340.799L339.834 42.3645H375.64Z" fill="white"/>
</g>
<g id="react" clip-path="url(#clip3_163_3)">
<g id="Group">
<path id="Vector_59" d="M351.267 375.009C351.267 369.427 344.215 364.138 333.404 360.858C335.899 349.936 334.79 341.247 329.904 338.465C328.778 337.812 327.461 337.503 326.023 337.503V341.333C326.82 341.333 327.461 341.487 327.998 341.779C330.355 343.119 331.377 348.219 330.58 354.779C330.389 356.393 330.077 358.093 329.696 359.828C326.3 359.004 322.593 358.368 318.694 357.956C316.356 354.779 313.93 351.894 311.487 349.37C317.135 344.166 322.437 341.316 326.041 341.316V337.486C321.276 337.486 315.039 340.852 308.732 346.691C302.426 340.886 296.188 337.555 291.424 337.555V341.384C295.01 341.384 300.329 344.218 305.977 349.387C303.552 351.911 301.126 354.779 298.822 357.956C294.906 358.368 291.199 359.004 287.803 359.845C287.404 358.128 287.11 356.462 286.902 354.865C286.087 348.305 287.092 343.205 289.431 341.848C289.951 341.539 290.627 341.401 291.424 341.401V337.572C289.968 337.572 288.652 337.881 287.508 338.534C282.64 341.316 281.548 349.988 284.06 360.875C273.284 364.173 266.267 369.445 266.267 375.009C266.267 380.59 273.318 385.879 284.13 389.159C281.635 400.081 282.744 408.77 287.629 411.552C288.756 412.205 290.072 412.514 291.528 412.514C296.292 412.514 302.53 409.148 308.836 403.309C315.143 409.114 321.38 412.445 326.145 412.445C327.6 412.445 328.917 412.136 330.06 411.484C334.929 408.702 336.02 400.029 333.508 389.142C344.25 385.862 351.267 380.573 351.267 375.009V375.009ZM328.709 363.554C328.068 365.77 327.271 368.054 326.37 370.338C325.659 368.964 324.914 367.59 324.1 366.216C323.303 364.842 322.454 363.503 321.605 362.198C324.065 362.558 326.439 363.005 328.709 363.554ZM320.774 381.843C319.422 384.162 318.036 386.36 316.598 388.403C314.017 388.627 311.4 388.747 308.767 388.747C306.151 388.747 303.534 388.627 300.97 388.421C299.532 386.377 298.129 384.196 296.777 381.895C295.461 379.645 294.265 377.361 293.174 375.06C294.248 372.759 295.461 370.458 296.76 368.208C298.112 365.89 299.498 363.692 300.936 361.648C303.517 361.425 306.133 361.305 308.767 361.305C311.383 361.305 313.999 361.425 316.563 361.631C318.001 363.675 319.405 365.855 320.756 368.157C322.073 370.406 323.268 372.69 324.36 374.991C323.268 377.293 322.073 379.594 320.774 381.843ZM326.37 379.611C327.305 381.912 328.102 384.213 328.761 386.446C326.491 386.995 324.1 387.459 321.623 387.819C322.471 386.497 323.32 385.141 324.117 383.75C324.914 382.376 325.659 380.985 326.37 379.611ZM308.802 397.934C307.19 396.286 305.579 394.448 303.985 392.439C305.544 392.508 307.138 392.559 308.75 392.559C310.378 392.559 311.989 392.525 313.566 392.439C312.007 394.448 310.395 396.286 308.802 397.934ZM295.911 387.819C293.451 387.459 291.077 387.012 288.808 386.463C289.449 384.248 290.246 381.964 291.147 379.68C291.857 381.053 292.602 382.427 293.416 383.801C294.231 385.175 295.062 386.514 295.911 387.819ZM308.715 352.083C310.326 353.732 311.937 355.569 313.531 357.578C311.972 357.51 310.378 357.458 308.767 357.458C307.138 357.458 305.527 357.492 303.95 357.578C305.51 355.569 307.121 353.732 308.715 352.083ZM295.894 362.198C295.045 363.52 294.196 364.877 293.399 366.268C292.602 367.641 291.857 369.015 291.147 370.389C290.211 368.088 289.414 365.787 288.756 363.554C291.025 363.022 293.416 362.558 295.894 362.198V362.198ZM280.214 383.698C274.081 381.105 270.113 377.705 270.113 375.009C270.113 372.312 274.081 368.895 280.214 366.319C281.704 365.684 283.333 365.117 285.013 364.585C286.001 367.951 287.3 371.454 288.912 375.043C287.318 378.615 286.036 382.101 285.065 385.45C283.35 384.917 281.721 384.333 280.214 383.698ZM289.535 408.238C287.179 406.898 286.157 401.798 286.954 395.238C287.144 393.624 287.456 391.924 287.837 390.189C291.233 391.014 294.941 391.649 298.839 392.061C301.178 395.238 303.604 398.123 306.047 400.648C300.399 405.851 295.097 408.702 291.493 408.702C290.713 408.684 290.055 408.53 289.535 408.238V408.238ZM330.632 395.152C331.446 401.712 330.441 406.813 328.102 408.169C327.583 408.478 326.907 408.616 326.11 408.616C322.523 408.616 317.204 405.782 311.556 400.613C313.982 398.089 316.407 395.221 318.712 392.044C322.627 391.632 326.335 390.996 329.731 390.155C330.129 391.889 330.441 393.555 330.632 395.152V395.152ZM337.302 383.698C335.812 384.333 334.184 384.9 332.503 385.432C331.516 382.067 330.216 378.563 328.605 374.974C330.199 371.402 331.481 367.916 332.451 364.568C334.166 365.1 335.795 365.684 337.32 366.319C343.453 368.912 347.421 372.312 347.421 375.009C347.403 377.705 343.436 381.122 337.302 383.698V383.698Z" fill="#3AABD1"/>
<path id="Vector_60" d="M308.749 382.857C313.122 382.857 316.667 379.343 316.667 375.009C316.667 370.674 313.122 367.161 308.749 367.161C304.376 367.161 300.832 370.674 300.832 375.009C300.832 379.343 304.376 382.857 308.749 382.857Z" fill="#3AABD1"/>
</g>
</g>
<g id="css" clip-path="url(#clip4_163_3)">
<path id="Vector_61" d="M52.4632 80.5719L46.2668 0.151001L120.267 0.312613L113.715 80.5719L83.5461 89.849L52.4632 80.5719Z" fill="#517D8C"/>
<path id="Vector_62" d="M83.5461 82.0822V7.81018L114.02 7.91792L108.586 74.3692L83.5461 82.0822Z" fill="#263A41"/>
<path id="Vector_63" d="M106.452 17.3035H59.5737L60.8437 27.0116H83.089L61.1993 36.9904L62.4687 46.3753H94.7201L93.5517 59.4817L82.6319 61.7475L72.7284 59.0508L71.9663 51.6071H62.8751L64.0937 67.0877L83.5969 72.8588L102.288 66.5483L104.675 36.2888H84.9169L106.452 26.7961L106.452 17.3035Z" fill="white"/>
</g>
<g id="bootstrap" clip-path="url(#clip5_163_3)">
<path id="Vector_64" fill-rule="evenodd" clip-rule="evenodd" d="M76.0372 305.01C70.3313 305.01 66.1092 310.004 66.2983 315.42C66.4797 320.623 66.244 327.362 64.5475 332.858C62.845 338.369 59.9676 341.861 55.2668 342.31V347.37C59.9676 347.82 62.845 351.31 64.5473 356.822C66.244 362.318 66.4795 369.057 66.2981 374.26C66.109 379.676 70.3311 384.67 76.0379 384.67H134.504C140.21 384.67 144.431 379.676 144.242 374.26C144.061 369.057 144.297 362.318 145.993 356.822C147.696 351.31 150.566 347.818 155.267 347.37V342.31C150.566 341.86 147.696 338.37 145.993 332.858C144.296 327.363 144.061 320.623 144.242 315.42C144.431 310.004 140.21 305.01 134.504 305.01H76.0364H76.0372ZM123.064 354.046C123.064 361.504 117.501 366.027 108.269 366.027H92.5549C92.1054 366.027 91.6743 365.848 91.3564 365.53C91.0386 365.212 90.86 364.781 90.86 364.332V325.349C90.86 324.899 91.0386 324.468 91.3564 324.15C91.6743 323.832 92.1054 323.654 92.5549 323.654H108.18C115.877 323.654 120.929 327.823 120.929 334.225C120.929 338.718 117.531 342.74 113.201 343.445V343.679C119.095 344.326 123.064 348.408 123.064 354.046V354.046ZM106.556 329.027H97.5958V341.683H105.142C110.976 341.683 114.193 339.334 114.193 335.135C114.193 331.199 111.427 329.027 106.556 329.027ZM97.5958 346.704V360.652H106.886C112.96 360.652 116.177 358.215 116.177 353.634C116.177 349.054 112.87 346.704 106.495 346.704H97.5958V346.704Z" fill="#3F3D56"/>
</g>
</g>
<defs>
<linearGradient id="paint0_linear_163_3" x1="214.267" y1="37" x2="214.241" y2="343" gradientUnits="userSpaceOnUse">
<stop stop-color="#C0D7E0"/>
<stop offset="1" stop-color="#C0D7E0" stop-opacity="0.19"/>
</linearGradient>
<linearGradient id="paint1_linear_163_3" x1="215.267" y1="45" x2="215.267" y2="327" gradientUnits="userSpaceOnUse">
<stop stop-color="#263A41"/>
<stop offset="1" stop-color="#3C3C3C"/>
</linearGradient>
<clipPath id="clip0_163_3">
<rect width="84" height="84" fill="white" transform="translate(4.26685 177)"/>
</clipPath>
<clipPath id="clip1_163_3">
<rect width="65" height="102" fill="white" transform="translate(343.267 177)"/>
</clipPath>
<clipPath id="clip2_163_3">
<rect width="74" height="90" fill="white" transform="translate(316.267 16)"/>
</clipPath>
<clipPath id="clip3_163_3">
<rect width="85" height="96" fill="white" transform="translate(266.267 327)"/>
</clipPath>
<clipPath id="clip4_163_3">
<rect width="74" height="90" fill="white" transform="translate(46.2668)"/>
</clipPath>
<clipPath id="clip5_163_3">
<rect width="100" height="79.68" fill="white" transform="translate(55.2668 305)"/>
</clipPath>
</defs>
</svg>
